<svg id="svg" version="1.1" xmlns="http://www.w3.org/2000/svg" xmlns:xlink="http://www.w3.org/1999/xlink" width="400" height="400" viewBox="0, 0, 400,400"><g id="svgg"><path id="path0" d="M190.600 90.631 C 189.940 90.720,187.780 90.991,185.800 91.233 C 95.243 102.303,56.922 214.222,121.568 278.829 C 189.772 346.992,307.132 300.640,309.889 204.449 L 310.122 196.299 311.384 194.449 C 312.078 193.432,318.652 184.230,325.994 174.000 C 333.336 163.770,341.047 153.015,343.129 150.100 C 347.392 144.134,347.318 144.172,350.667 146.190 C 358.358 150.823,365.277 148.505,371.599 139.178 C 378.002 129.730,378.287 123.050,372.522 117.547 C 369.286 114.458,349.086 101.386,346.372 100.624 C 339.566 98.714,334.571 101.317,328.990 109.683 C 323.419 118.034,322.796 123.202,326.675 128.879 C 328.648 131.766,328.974 131.033,320.363 143.058 C 316.131 148.966,310.968 156.194,308.889 159.121 C 304.686 165.037,304.309 165.239,303.125 162.200 C 288.063 123.518,256.211 97.916,215.000 91.367 C 211.208 90.764,193.553 90.232,190.600 90.631 M347.400 103.895 C 349.805 105.124,369.041 118.137,370.475 119.506 C 375.279 124.091,374.934 129.254,369.258 137.713 C 364.344 145.037,358.835 147.358,353.263 144.452 C 349.281 142.375,331.197 129.919,329.708 128.228 C 325.592 123.552,326.115 118.843,331.659 110.656 C 336.525 103.470,341.979 101.127,347.400 103.895 M234.509 105.544 C 249.260 110.664,266.300 121.834,267.924 127.446 C 269.955 134.470,268.811 136.085,254.064 147.000 C 248.714 150.960,241.246 156.493,237.468 159.296 C 229.697 165.062,229.802 165.030,226.575 162.644 C 223.381 160.282,219.324 158.287,215.138 157.022 C 213.234 156.446,211.574 155.709,211.449 155.384 C 211.240 154.840,212.451 145.734,215.010 128.600 C 215.569 124.860,216.294 119.820,216.621 117.400 C 218.204 105.692,223.955 101.880,234.509 105.544 M139.683 121.417 C 139.802 121.536,139.565 122.908,139.156 124.467 C 135.072 140.022,144.347 156.179,162.694 165.471 C 165.441 166.862,167.916 168.000,168.195 168.000 C 170.078 168.000,169.659 169.235,166.802 172.099 C 163.405 175.505,161.188 178.629,159.544 182.329 C 157.056 187.925,157.841 187.716,148.661 185.237 C 141.869 183.403,132.078 180.802,122.800 178.367 C 107.870 174.449,106.080 173.344,104.769 167.229 C 103.206 159.942,118.890 135.646,131.200 126.287 C 136.156 122.519,139.097 120.831,139.683 121.417 M338.500 138.471 C 341.745 140.639,344.400 142.658,344.400 142.957 C 344.400 143.527,335.538 155.985,292.014 216.600 C 290.119 219.240,284.075 227.679,278.584 235.354 C 265.940 253.026,268.514 250.702,256.200 255.567 C 239.603 262.126,239.775 261.897,241.234 275.444 L 242.115 283.626 241.234 284.563 C 240.107 285.763,236.007 286.714,234.642 286.092 C 233.919 285.762,233.064 284.042,230.788 278.334 C 226.694 268.067,224.169 265.715,218.400 266.799 C 215.190 267.403,214.880 267.042,212.539 260.000 C 209.229 250.045,208.832 250.629,220.400 248.418 C 236.006 245.435,243.366 244.051,246.000 243.603 C 252.895 242.433,252.433 242.883,265.473 224.600 C 275.383 210.704,323.860 142.951,328.007 137.200 C 331.132 132.867,329.887 132.716,338.500 138.471 M46.315 161.359 C 39.075 164.336,30.758 171.231,25.517 178.600 C 6.744 204.995,17.005 243.190,46.355 256.165 C 54.203 259.634,56.369 251.628,48.632 247.744 C 16.238 231.479,16.727 185.766,49.471 169.263 C 54.041 166.960,54.737 162.232,50.714 160.830 C 49.073 160.258,48.958 160.272,46.315 161.359 M209.788 161.604 C 238.084 169.176,247.839 204.089,227.601 225.353 C 203.858 250.298,161.983 233.519,161.834 199.000 C 161.725 173.586,185.444 155.089,209.788 161.604 M347.800 164.064 C 343.768 166.282,344.913 170.182,350.416 172.974 C 382.221 189.113,382.384 233.526,350.701 250.587 C 345.710 253.275,344.585 255.158,346.266 258.004 C 348.168 261.224,351.848 260.419,359.995 255.003 C 384.756 238.542,390.379 203.214,371.964 179.800 C 364.684 170.543,351.560 161.997,347.800 164.064 M51.847 177.031 C 29.047 188.655,25.759 220.652,45.707 236.792 C 50.476 240.651,55.269 242.716,57.395 241.828 C 61.339 240.180,60.839 235.667,56.468 233.472 C 36.648 223.517,35.724 196.492,54.816 185.190 C 60.436 181.864,61.422 179.742,58.640 176.960 C 56.866 175.186,55.437 175.201,51.847 177.031 M341.105 179.026 C 337.472 180.998,338.221 184.790,342.718 187.191 C 363.173 198.111,363.066 225.483,342.526 236.372 C 335.808 239.934,339.437 247.125,346.366 243.981 C 364.058 235.955,371.527 213.420,362.502 195.299 C 357.787 185.832,345.618 176.577,341.105 179.026 M196.600 189.947 C 186.795 194.417,189.281 208.723,200.000 209.511 C 208.997 210.173,214.311 199.410,208.338 192.624 C 205.454 189.348,200.429 188.202,196.600 189.947 M59.246 191.838 C 55.993 193.480,52.809 196.842,50.967 200.579 L 49.400 203.757 49.400 208.798 L 49.400 213.839 50.970 217.019 C 54.482 224.137,62.110 228.696,65.123 225.479 C 67.364 223.087,66.903 220.418,63.931 218.577 C 56.828 214.178,55.556 206.868,60.927 201.300 C 61.829 200.365,62.761 199.600,62.998 199.600 C 64.255 199.600,66.081 197.350,66.284 195.553 C 66.720 191.687,63.212 189.836,59.246 191.838 M333.760 195.360 C 331.170 197.950,331.895 199.862,336.790 203.350 C 343.418 208.073,342.708 217.264,335.400 221.330 C 329.761 224.468,333.572 231.875,339.320 228.948 C 351.887 222.550,353.625 205.106,342.527 196.749 C 338.233 193.516,335.964 193.156,333.760 195.360 M255.902 208.592 C 270.612 210.885,270.565 210.875,270.710 211.630 C 270.843 212.319,255.024 234.661,253.917 235.350 C 253.384 235.681,252.942 235.559,251.917 234.798 C 249.507 233.010,241.838 229.361,237.692 228.030 C 232.869 226.481,232.968 226.784,236.025 222.936 C 238.852 219.378,241.667 214.003,242.609 210.362 C 243.197 208.087,243.791 206.800,244.251 206.800 C 244.335 206.800,249.578 207.606,255.902 208.592 M297.443 219.761 C 301.317 228.080,287.675 254.927,273.306 267.262 C 268.134 271.702,267.851 271.738,268.261 267.900 C 268.688 263.902,268.600 260.178,268.003 257.015 L 267.499 254.343 268.735 253.271 C 269.415 252.682,272.016 249.320,274.515 245.800 C 296.999 214.125,295.573 215.745,297.443 219.761 M170.841 234.195 C 177.076 238.762,180.297 240.534,184.658 241.797 C 188.759 242.985,188.680 241.937,185.780 256.813 C 184.559 263.076,182.932 271.438,182.165 275.396 C 179.398 289.671,179.133 290.484,176.429 292.926 C 170.718 298.086,161.866 296.294,145.890 286.745 C 129.972 277.229,124.284 269.530,127.755 262.200 C 129.154 259.246,129.822 258.737,149.436 245.699 C 170.841 231.470,168.694 232.623,170.841 234.195 " stroke="none" fill="#090707" fill-rule="evenodd"></path><path id="path1" d="M225.400 104.536 C 219.673 106.431,217.717 109.298,216.621 117.400 C 216.294 119.820,215.569 124.860,215.010 128.600 C 212.451 145.734,211.240 154.840,211.449 155.384 C 211.574 155.709,213.234 156.446,215.138 157.022 C 219.324 158.287,223.381 160.282,226.575 162.644 C 229.802 165.030,229.697 165.062,237.468 159.296 C 241.246 156.493,248.714 150.960,254.064 147.000 C 268.811 136.085,269.955 134.470,267.924 127.446 C 265.529 119.169,233.434 101.877,225.400 104.536 M193.000 160.967 C 162.226 167.025,150.991 204.680,173.466 226.434 C 197.130 249.339,236.664 233.500,238.291 200.463 C 239.492 176.080,216.791 156.284,193.000 160.967 M205.013 190.048 C 212.975 193.791,212.633 205.748,204.476 208.817 C 197.685 211.372,190.971 207.030,190.480 199.765 C 189.974 192.287,198.149 186.822,205.013 190.048 M168.036 233.486 C 166.829 233.964,131.323 257.760,130.051 258.944 C 122.261 266.196,127.812 275.938,145.890 286.745 C 161.866 296.294,170.718 298.086,176.429 292.926 C 179.133 290.484,179.398 289.671,182.165 275.396 C 182.932 271.438,184.559 263.076,185.780 256.813 C 188.680 241.937,188.759 242.985,184.658 241.797 C 180.297 240.534,177.076 238.762,170.841 234.195 C 169.465 233.188,169.054 233.084,168.036 233.486 " stroke="none" fill="#c90d05" fill-rule="evenodd"></path><path id="path2" d="M0.000 200.000 L 0.000 400.000 200.000 400.000 L 400.000 400.000 400.000 200.000 L 400.000 0.000 200.000 0.000 L 0.000 0.000 0.000 200.000 M210.800 90.047 C 250.377 93.569,286.760 120.452,302.191 157.577 C 303.329 160.314,304.456 162.619,304.697 162.699 C 305.070 162.823,309.561 156.711,324.500 135.746 C 327.665 131.304,327.562 131.818,325.808 129.211 C 321.749 123.181,322.423 117.879,328.377 109.000 C 334.273 100.207,340.157 97.421,347.431 99.977 C 350.513 101.060,371.585 115.222,373.831 117.719 C 379.126 123.607,378.804 129.971,372.754 139.025 C 365.812 149.415,358.543 151.975,350.220 146.962 C 347.343 145.228,348.511 144.120,338.509 158.081 C 333.939 164.459,326.431 174.925,321.825 181.339 C 317.219 187.752,312.881 193.834,312.184 194.853 L 310.917 196.707 310.692 204.853 C 308.983 266.746,255.248 315.863,193.500 311.975 C 103.595 306.314,56.982 204.133,111.674 132.600 C 134.773 102.388,171.638 86.563,210.800 90.047 M135.206 124.491 C 124.961 131.371,114.643 144.164,107.739 158.549 C 103.636 167.098,105.609 172.555,113.666 174.941 C 120.828 177.062,156.225 186.265,156.645 186.115 C 156.890 186.028,157.582 184.703,158.183 183.171 C 159.593 179.578,162.430 175.252,165.598 171.866 C 166.980 170.388,168.042 169.118,167.956 169.044 C 167.870 168.970,166.630 168.394,165.200 167.765 C 145.978 159.309,134.487 141.873,137.807 126.200 C 138.690 122.031,138.782 122.091,135.206 124.491 M52.365 160.714 C 55.883 163.340,54.611 167.946,49.755 170.169 C 17.654 184.866,17.523 230.725,49.536 247.219 C 58.606 251.893,54.242 260.917,45.000 256.598 C 18.769 244.338,7.510 211.265,20.646 185.065 C 28.099 170.200,46.328 156.206,52.365 160.714 M355.115 164.758 C 373.199 173.833,383.344 190.716,383.383 211.800 C 383.419 231.293,375.004 246.802,359.030 256.684 C 350.637 261.876,347.302 262.142,345.195 257.789 C 343.565 254.422,344.610 252.752,350.194 249.802 C 381.515 233.255,381.211 189.921,349.660 173.570 C 343.952 170.612,342.851 167.315,346.450 163.953 C 348.362 162.167,350.314 162.348,355.115 164.758 M59.247 176.353 C 61.867 178.972,61.104 183.023,57.694 184.610 C 40.524 192.596,36.590 214.887,50.061 227.860 C 52.152 229.875,56.361 232.800,57.167 232.800 C 59.171 232.800,61.554 237.115,60.804 239.387 C 59.576 243.108,56.474 243.915,51.892 241.703 C 34.341 233.232,26.648 211.628,34.817 193.750 C 40.580 181.137,54.277 171.383,59.247 176.353 M346.011 178.405 C 364.426 185.663,372.796 209.743,363.394 228.413 C 358.704 237.726,346.767 247.239,341.820 245.607 C 336.547 243.866,336.823 238.316,342.328 235.397 C 361.384 225.292,362.093 199.745,343.620 188.811 C 338.113 185.552,336.951 183.589,338.619 180.362 C 339.976 177.739,342.576 177.050,346.011 178.405 M65.376 191.233 C 68.429 193.913,67.078 200.400,63.467 200.400 C 61.442 200.400,58.800 205.155,58.800 208.800 C 58.800 213.011,59.886 214.812,64.010 217.439 C 67.443 219.626,68.300 221.860,66.820 224.761 C 63.960 230.366,54.709 226.380,50.143 217.575 L 48.600 214.600 48.600 208.800 L 48.600 203.000 50.343 199.704 C 54.299 192.220,61.731 188.032,65.376 191.233 M339.965 194.046 C 352.052 200.086,354.540 216.478,344.815 226.000 C 339.512 231.193,334.834 231.899,332.382 227.878 C 330.906 225.456,331.853 222.287,334.474 220.877 C 341.591 217.048,342.565 208.196,336.321 204.085 C 330.594 200.314,329.870 195.934,334.587 193.599 C 336.703 192.552,337.029 192.579,339.965 194.046 M244.303 208.251 C 244.190 208.443,243.789 209.680,243.410 211.000 C 242.356 214.681,240.071 219.061,237.317 222.683 C 235.944 224.488,234.951 226.043,235.110 226.137 C 235.270 226.231,237.110 226.891,239.200 227.603 C 243.194 228.965,248.755 231.608,251.318 233.361 C 253.814 235.070,252.589 236.298,263.127 221.524 C 270.639 210.992,270.346 211.789,266.900 211.249 C 265.415 211.016,260.780 210.283,256.600 209.620 C 246.894 208.080,244.556 207.820,244.303 208.251 M291.959 222.959 C 290.111 225.544,288.331 228.051,288.003 228.530 C 287.675 229.008,285.510 232.010,283.193 235.200 C 280.877 238.390,277.203 243.520,275.029 246.600 C 272.856 249.680,270.492 252.830,269.776 253.600 L 268.473 255.000 269.076 257.800 C 269.509 259.810,269.614 261.813,269.449 264.900 C 269.174 270.043,268.921 269.980,273.487 265.897 C 281.310 258.902,287.213 250.505,292.678 238.600 C 297.758 227.530,298.652 222.376,296.049 219.161 L 295.317 218.257 291.959 222.959 " stroke="none" fill="#fbfbfb" fill-rule="evenodd"></path><path id="path3" d="M193.000 89.619 C 96.778 96.335,53.148 212.143,121.350 279.802 C 190.048 347.953,308.030 301.251,310.692 204.853 L 310.917 196.707 312.184 194.853 C 312.881 193.834,317.219 187.752,321.825 181.339 C 326.431 174.925,333.939 164.459,338.509 158.081 C 348.511 144.120,347.343 145.228,350.220 146.962 C 358.543 151.975,365.812 149.415,372.754 139.025 C 378.804 129.971,379.126 123.607,373.831 117.719 C 371.585 115.222,350.513 101.060,347.431 99.977 C 340.157 97.421,334.273 100.207,328.377 109.000 C 322.423 117.879,321.749 123.181,325.808 129.211 C 327.562 131.818,327.665 131.304,324.500 135.746 C 309.561 156.711,305.070 162.823,304.697 162.699 C 304.456 162.619,303.329 160.314,302.191 157.577 C 284.303 114.541,239.091 86.402,193.000 89.619 M215.000 91.367 C 256.211 97.916,288.063 123.518,303.125 162.200 C 304.309 165.239,304.686 165.037,308.889 159.121 C 310.968 156.194,316.131 148.966,320.363 143.058 C 328.974 131.033,328.648 131.766,326.675 128.879 C 322.796 123.202,323.419 118.034,328.990 109.683 C 334.571 101.317,339.566 98.714,346.372 100.624 C 349.086 101.386,369.286 114.458,372.522 117.547 C 378.287 123.050,378.002 129.730,371.599 139.178 C 365.277 148.505,358.358 150.823,350.667 146.190 C 347.318 144.172,347.392 144.134,343.129 150.100 C 341.047 153.015,333.336 163.770,325.994 174.000 C 318.652 184.230,312.078 193.432,311.384 194.449 L 310.122 196.299 309.889 204.449 C 307.132 300.640,189.772 346.992,121.568 278.829 C 56.922 214.222,95.243 102.303,185.800 91.233 C 187.780 90.991,189.940 90.720,190.600 90.631 C 193.553 90.232,211.208 90.764,215.000 91.367 M339.879 103.353 C 334.623 104.813,327.229 114.968,327.209 120.754 C 327.188 126.764,328.301 128.020,341.401 136.778 C 355.305 146.072,357.820 147.013,362.400 144.633 C 367.484 141.991,373.744 132.474,373.735 127.400 C 373.725 121.765,372.465 120.406,358.800 111.303 C 345.467 102.421,344.579 102.048,339.879 103.353 M135.774 123.059 C 124.564 130.573,115.863 140.885,108.149 155.800 C 103.406 164.973,103.403 168.735,108.135 173.097 C 110.104 174.913,111.374 175.369,122.800 178.367 C 132.078 180.802,141.869 183.403,148.661 185.237 C 157.841 187.716,157.056 187.925,159.544 182.329 C 161.188 178.629,163.405 175.505,166.802 172.099 C 169.659 169.235,170.078 168.000,168.195 168.000 C 167.916 168.000,165.441 166.862,162.694 165.471 C 144.347 156.179,135.072 140.022,139.156 124.467 C 140.209 120.455,139.871 120.314,135.774 123.059 M138.400 123.100 C 138.400 123.265,138.133 124.660,137.807 126.200 C 134.487 141.873,145.978 159.309,165.200 167.765 C 166.630 168.394,167.870 168.970,167.956 169.044 C 168.042 169.118,166.980 170.388,165.598 171.866 C 162.430 175.252,159.593 179.578,158.183 183.171 C 157.582 184.703,156.890 186.028,156.645 186.115 C 156.225 186.265,120.828 177.062,113.666 174.941 C 107.981 173.257,105.309 169.888,105.673 164.863 C 106.067 159.411,115.133 144.037,123.189 135.158 C 128.727 129.055,138.400 121.387,138.400 123.100 M330.563 133.928 C 330.347 134.078,329.197 135.550,328.007 137.200 C 323.860 142.951,275.383 210.704,265.473 224.600 C 252.433 242.883,252.895 242.433,246.000 243.603 C 243.366 244.051,236.006 245.435,220.400 248.418 C 208.832 250.629,209.229 250.045,212.539 260.000 C 214.880 267.042,215.190 267.403,218.400 266.799 C 224.169 265.715,226.694 268.067,230.788 278.334 C 233.064 284.042,233.919 285.762,234.642 286.092 C 236.007 286.714,240.107 285.763,241.234 284.563 L 242.115 283.626 241.234 275.444 C 239.775 261.897,239.603 262.126,256.200 255.567 C 268.514 250.702,265.940 253.026,278.584 235.354 C 284.075 227.679,290.119 219.240,292.014 216.600 C 335.538 155.985,344.400 143.527,344.400 142.957 C 344.400 142.014,331.265 133.443,330.563 133.928 M45.978 160.512 C 16.105 173.083,5.611 213.548,25.328 240.140 C 33.561 251.244,47.319 260.104,51.881 257.240 C 56.154 254.556,55.109 250.091,49.536 247.219 C 17.523 230.725,17.654 184.866,49.755 170.169 C 57.883 166.448,54.207 157.050,45.978 160.512 M50.714 160.830 C 54.737 162.232,54.041 166.960,49.471 169.263 C 16.727 185.766,16.238 231.479,48.632 247.744 C 56.369 251.628,54.203 259.634,46.355 256.165 C 11.673 240.833,5.383 191.967,35.056 168.382 C 42.156 162.738,48.043 159.899,50.714 160.830 M346.450 163.953 C 342.851 167.315,343.952 170.612,349.660 173.570 C 381.211 189.921,381.515 233.255,350.194 249.802 C 345.695 252.179,345.777 252.110,344.975 254.210 C 343.174 258.924,348.189 262.288,353.400 259.861 C 362.611 255.571,370.750 248.145,376.542 238.748 C 386.128 223.195,386.030 200.119,376.312 184.462 C 367.930 170.956,351.231 159.487,346.450 163.953 M354.508 165.446 C 389.595 182.990,392.676 233.277,359.995 255.003 C 351.848 260.419,348.168 261.224,346.266 258.004 C 344.585 255.158,345.710 253.275,350.701 250.587 C 382.384 233.526,382.221 189.113,350.416 172.974 C 345.725 170.594,344.257 167.869,346.309 165.352 C 348.159 163.083,349.820 163.102,354.508 165.446 M51.447 176.231 C 32.243 186.022,25.671 210.502,37.354 228.728 C 45.101 240.815,58.346 246.835,60.804 239.387 C 61.554 237.115,59.171 232.800,57.167 232.800 C 56.361 232.800,52.152 229.875,50.061 227.860 C 36.590 214.887,40.524 192.596,57.694 184.610 C 61.104 183.023,61.867 178.972,59.247 176.353 C 57.174 174.279,55.331 174.251,51.447 176.231 M58.640 176.960 C 61.422 179.742,60.436 181.864,54.816 185.190 C 35.724 196.492,36.648 223.517,56.468 233.472 C 61.869 236.185,60.480 243.629,54.873 242.021 C 39.978 237.749,29.058 216.523,33.388 200.258 C 37.180 186.014,53.051 171.371,58.640 176.960 M340.519 178.384 C 336.039 181.116,337.196 185.009,343.620 188.811 C 362.093 199.745,361.384 225.292,342.328 235.397 C 337.943 237.723,336.746 240.944,339.220 243.762 C 341.579 246.448,343.743 246.476,348.400 243.878 C 366.224 233.934,372.690 211.693,362.887 194.042 C 357.187 183.779,345.309 175.464,340.519 178.384 M345.292 179.075 C 372.577 189.859,373.271 231.775,346.366 243.981 C 339.437 247.125,335.808 239.934,342.526 236.372 C 363.066 225.483,363.173 198.111,342.718 187.191 C 336.292 183.760,338.615 176.436,345.292 179.075 M58.844 191.053 C 55.484 192.727,52.339 195.928,50.343 199.704 L 48.600 203.000 48.600 208.800 L 48.600 214.600 50.143 217.575 C 54.709 226.380,63.960 230.366,66.820 224.761 C 68.300 221.860,67.443 219.626,64.010 217.439 C 59.886 214.812,58.800 213.011,58.800 208.800 C 58.800 205.155,61.442 200.400,63.467 200.400 C 64.410 200.400,66.779 197.940,67.158 196.567 C 68.485 191.760,63.741 188.613,58.844 191.053 M65.346 192.443 C 67.323 194.638,65.695 199.600,62.998 199.600 C 62.761 199.600,61.829 200.365,60.927 201.300 C 55.556 206.868,56.828 214.178,63.931 218.577 C 66.903 220.418,67.364 223.087,65.123 225.479 C 62.110 228.696,54.482 224.137,50.970 217.019 L 49.400 213.839 49.400 208.798 L 49.400 203.757 50.967 200.579 C 54.728 192.949,62.062 188.800,65.346 192.443 M334.587 193.599 C 329.870 195.934,330.594 200.314,336.321 204.085 C 342.565 208.196,341.591 217.048,334.474 220.877 C 331.853 222.287,330.906 225.456,332.382 227.878 C 337.340 236.009,350.800 224.071,350.800 211.543 C 350.800 201.554,340.824 190.512,334.587 193.599 M339.320 194.649 C 353.382 201.781,353.382 221.789,339.320 228.948 C 333.572 231.875,329.761 224.468,335.400 221.330 C 342.708 217.264,343.418 208.073,336.790 203.350 C 331.895 199.862,331.170 197.950,333.760 195.360 C 335.324 193.796,337.172 193.560,339.320 194.649 M243.685 207.300 C 243.457 207.575,242.973 208.953,242.609 210.362 C 241.667 214.003,238.852 219.378,236.025 222.936 C 232.968 226.784,232.869 226.481,237.692 228.030 C 241.838 229.361,249.507 233.010,251.917 234.798 C 252.942 235.559,253.384 235.681,253.917 235.350 C 255.024 234.661,270.843 212.319,270.710 211.630 C 270.565 210.875,270.612 210.885,255.902 208.592 C 242.506 206.504,244.195 206.683,243.685 207.300 M256.600 209.620 C 260.780 210.283,265.415 211.016,266.900 211.249 C 270.346 211.789,270.639 210.992,263.127 221.524 C 252.589 236.298,253.814 235.070,251.318 233.361 C 248.755 231.608,243.194 228.965,239.200 227.603 C 237.110 226.891,235.270 226.231,235.110 226.137 C 234.951 226.043,235.944 224.488,237.317 222.683 C 240.071 219.061,242.356 214.681,243.410 211.000 C 243.789 209.680,244.190 208.443,244.303 208.251 C 244.556 207.820,246.894 208.080,256.600 209.620 M294.491 218.129 C 293.724 218.970,283.905 232.571,274.515 245.800 C 272.016 249.320,269.415 252.682,268.735 253.271 L 267.499 254.343 268.003 257.015 C 268.600 260.178,268.688 263.902,268.261 267.900 C 267.851 271.738,268.134 271.702,273.306 267.262 C 287.675 254.927,301.317 228.080,297.443 219.761 C 296.319 217.347,295.577 216.937,294.491 218.129 M297.188 221.532 C 298.962 227.919,289.541 248.108,279.052 260.400 C 277.135 262.646,270.035 269.191,269.509 269.197 C 269.350 269.199,269.322 267.265,269.449 264.900 C 269.614 261.813,269.509 259.810,269.076 257.800 L 268.473 255.000 269.776 253.600 C 270.492 252.830,272.856 249.680,275.029 246.600 C 277.203 243.520,280.877 238.390,283.193 235.200 C 285.510 232.010,287.675 229.008,288.003 228.530 C 288.331 228.051,290.111 225.544,291.959 222.959 L 295.317 218.257 296.049 219.161 C 296.451 219.658,296.964 220.725,297.188 221.532 " stroke="none" fill="#afafaf" fill-rule="evenodd"></path></g></svg>